<svg id="Capa_1" data-name="Capa 1" xmlns="http://www.w3.org/2000/svg" viewBox="0 0 145 127"><defs><style>.cls-1{fill:#26305f;}.cls-2{fill:#4577bb;}</style></defs><path class="cls-1" d="M3.41,27.74a1,1,0,0,1,1-.9c1.94,0,3.89,0,5.82,0a20,20,0,0,1,6.26.71,8.33,8.33,0,0,1,4.77,4,9.41,9.41,0,0,1-1.13,10.51A8.93,8.93,0,0,1,24,46.49a10.41,10.41,0,0,1,.51,6.36,10.27,10.27,0,0,1-3.55,5.62,11.67,11.67,0,0,1-7.38,2.44H4.35a1,1,0,0,1-1-1Q3.43,43.84,3.41,27.74Zm6.32,5.54c0,2.13,0,4.26,0,6.39,1.53-.1,3.18,0,4.56-.79a3.27,3.27,0,0,0,1.42-3.82,2.14,2.14,0,0,0-1.33-1.36A13.56,13.56,0,0,0,9.73,33.28Zm0,21.19a32.11,32.11,0,0,0,5.19-.22,4.29,4.29,0,0,0,1.86-.79A4.11,4.11,0,0,0,17.93,52a3.53,3.53,0,0,0-.64-4,5.88,5.88,0,0,0-3.13-1.59,36.71,36.71,0,0,0-4.45-.17C9.72,48.94,9.73,51.7,9.72,54.47Z"/><path class="cls-1" d="M27.17,37.31a.92.92,0,0,1,.88-.86h4.51a1,1,0,0,1,.92,1v17h6.68a1,1,0,0,1,1,1v4.35a1,1,0,0,1-.89,1H28.06a.93.93,0,0,1-.89-1Z"/><path class="cls-1" d="M44.67,36.5a1.81,1.81,0,0,1,.57-.06c1.38,0,2.75,0,4.12,0a1,1,0,0,1,1,1c0,3.34,0,6.69,0,10a14,14,0,0,0,.34,4,3.34,3.34,0,0,0,1.24,1.79,6.33,6.33,0,0,0,4,1.3,4.89,4.89,0,0,0,3.4-1.64,6.3,6.3,0,0,0,1.3-4.1c.07-3.83,0-7.66,0-11.5a.91.91,0,0,1,1-.83h4.25a1,1,0,0,1,1,1c0,2,0,3.94,0,5.92a45.16,45.16,0,0,1-.52,9.07,10.09,10.09,0,0,1-2.94,5.27,10.25,10.25,0,0,1-5.77,3A13.44,13.44,0,0,1,51.1,60a10.73,10.73,0,0,1-5.18-4.09,10.05,10.05,0,0,1-1.49-3.81,52.84,52.84,0,0,1-.34-8.35v-6.4A1,1,0,0,1,44.67,36.5Z"/><path class="cls-1" d="M70.09,37.55a1,1,0,0,1,1-1.1H89.73a1,1,0,0,1,1,1V41.9a1,1,0,0,1-1,1H76.51v2.5c3.08,0,6.16,0,9.26,0a1,1,0,0,1,1,1q0,2.25,0,4.5a1,1,0,0,1-1,1H76.52v2.52H89.66a1,1,0,0,1,.94,1c0,1.45,0,2.92,0,4.37a1,1,0,0,1-.48,1A2,2,0,0,1,89,60.8H71.15a1,1,0,0,1-1-1.12C70.09,52.29,70.09,44.93,70.09,37.55Z"/><path class="cls-1" d="M3.92,69.94a1,1,0,0,1,.93-1.15h8.22A15.37,15.37,0,0,1,19.91,70a9.2,9.2,0,0,1,4.77,5.73,11.43,11.43,0,0,1,0,6,8.86,8.86,0,0,1-3.94,5.12,11.68,11.68,0,0,1-5.08,1.55c-1.77.16-3.54.13-5.32.16v13.28a1,1,0,0,1-1,1H4.85a1,1,0,0,1-.92-1.09Q3.92,85.85,3.92,69.94ZM10.3,75.2v7a26,26,0,0,0,4.23,0,5.22,5.22,0,0,0,3-.91,3.44,3.44,0,0,0,.9-3.78,3.19,3.19,0,0,0-1.26-1.63,3.62,3.62,0,0,0-1.73-.5A50.73,50.73,0,0,0,10.3,75.2Z"/><path class="cls-1" d="M27.41,69.82a1,1,0,0,1,1-1H46.93a1,1,0,0,1,1.09,1v4.48a1,1,0,0,1-1,1c-4.42,0-8.84,0-13.25,0,0,.83,0,1.67,0,2.49,3.09,0,6.18,0,9.26,0a1,1,0,0,1,1,1c0,1.33,0,2.66,0,4a1.76,1.76,0,0,1-.18,1,1.13,1.13,0,0,1-1,.45c-3,0-6,0-9,0,0,.83,0,1.68,0,2.51H47a1,1,0,0,1,.95,1.09v4.24A1,1,0,0,1,47,93.13q-9.26,0-18.51,0a1,1,0,0,1-1-1.09Z"/><path class="cls-1" d="M80.4,69.82a1,1,0,0,1,1.11-1c3.28,0,6.54-.06,9.81.07a12,12,0,0,1,5.78,1.55,9.21,9.21,0,0,1,4.2,5.92,11.84,11.84,0,0,1,.07,4.32A8.81,8.81,0,0,1,98.5,86a10.59,10.59,0,0,1-5.73,2.45,49.9,49.9,0,0,1-6,.22v4.53c-2.13,0-4.25,0-6.38,0C80.4,85.38,80.39,77.59,80.4,69.82Zm6.37,5.44v7a28.8,28.8,0,0,0,4,0,5.48,5.48,0,0,0,3.2-1,3.48,3.48,0,0,0,.83-3.71,3.17,3.17,0,0,0-1.26-1.64,4.08,4.08,0,0,0-1.94-.52C90,75.2,88.4,75.29,86.77,75.26Z"/><path class="cls-1" d="M104.6,69.22a1,1,0,0,1,.85-.39c1.45,0,2.9,0,4.35,0a1,1,0,0,1,.93,1.1V86.8c2.28,0,4.54,0,6.81,0a.94.94,0,0,1,.88,1c0,1.45,0,2.9,0,4.36a.93.93,0,0,1-1,1h-12a1,1,0,0,1-1-1q0-11,0-21.89A1.49,1.49,0,0,1,104.6,69.22Z"/><path class="cls-1" d="M121.87,69.82a1,1,0,0,1,1-1q9.25,0,18.49,0a1,1,0,0,1,1.07.86c0,1.53,0,3.08,0,4.62a.92.92,0,0,1-.95,1H128.28c0,.84,0,1.67,0,2.52,3.07,0,6.14,0,9.21,0a1,1,0,0,1,1,1v4.48a1,1,0,0,1-1.09,1h-9.09v2.52h13.09a1,1,0,0,1,1,1v4.48a1,1,0,0,1-1,1H122.87a1,1,0,0,1-1-1Q121.87,81,121.87,69.82Z"/><path class="cls-2" d="M62.35,69a11.72,11.72,0,0,1,6.7,1,12.26,12.26,0,0,1,1.8,21,11.78,11.78,0,0,1-8.09,2.11,12,12,0,0,1-9.36-6.64,12.38,12.38,0,0,1-.81-8.73,12.24,12.24,0,0,1,6.93-8A13.33,13.33,0,0,1,62.35,69Zm.72,6.15a6,6,0,0,0-3.41,9.76,5.71,5.71,0,0,0,8,.75,6,6,0,0,0,2.19-5.17A6.11,6.11,0,0,0,67.32,76,5.89,5.89,0,0,0,63.07,75.1Z"/><path class="cls-2" d="M59,95.21a19.74,19.74,0,0,1,8.2-.46,16.48,16.48,0,0,1,11.66,8.12c-2.63,0-5.26,0-7.89,0a.75.75,0,0,1-.55-.12,11,11,0,0,0-6.47-2,10.78,10.78,0,0,0-5.45,1.35c-.42.24-.8.51-1.18.78H49.13A16.49,16.49,0,0,1,59,95.21Z"/></svg>