<svg id="Capa_1" data-name="Capa 1" xmlns="http://www.w3.org/2000/svg" viewBox="0 0 145 127"><defs><style>.cls-1{fill:#4577bb;}</style></defs><path class="cls-1" d="M67.26,10.33a36.59,36.59,0,0,1,20.92,3.1A38.29,38.29,0,0,1,93.8,79a36.68,36.68,0,0,1-25.26,6.57c-12.46-1.24-23.79-9.51-29.22-20.73a38.61,38.61,0,0,1-2.53-27.26A38.09,38.09,0,0,1,58.42,12.75,39.84,39.84,0,0,1,67.26,10.33Zm2.26,19.22A18.68,18.68,0,0,0,58.87,60a18,18,0,0,0,13.45,6.42A18.19,18.19,0,0,0,84,62.36,18.74,18.74,0,0,0,90.78,46.2a19,19,0,0,0-8-13.78A18.27,18.27,0,0,0,69.52,29.55Z"/><path class="cls-1" d="M56.87,92.34a61.64,61.64,0,0,1,25.6-1.43c15.22,2.26,28.89,12.08,36.4,25.37-8.19.11-16.42,0-24.62,0a2.34,2.34,0,0,1-1.73-.38,34.39,34.39,0,0,0-20.2-6.34c-5.89.07-11.9,1.17-17,4.23a38.87,38.87,0,0,0-3.66,2.45H26A51.3,51.3,0,0,1,56.87,92.34Z"/></svg>